# xmcd CD database file
#
# Track frame offsets:
#	150
#	22027
#	46577
#
# Disc length: 978 seconds
#
# Revision: 0
# Processed by: cddbd v1.5.1PL2 Copyright (c) Steve Scherf et al.
# Submitted via: CDex 1.50beta8
#
DISCID=1903d003
DTITLE=忌野清志郎 Little Screaming Revue - メロメロ
DYEAR=1997
DGENRE=Blues
TTITLE0=メロメロ
TTITLE1=風
TTITLE2=メロメロ(オリジナル・フルバージョン・カラオケ)
EXTD=YEAR: 1997
EXTT0=
EXTT1=
EXTT2=
PLAYORDER=
